<svg width="23" height="23" viewBox="0 0 23 23" fill="none" xmlns="http://www.w3.org/2000/svg">
<g clip-path="url(#clip0_75_168)">
<path d="M5.1 22.52H0.45V7.51H5.1V22.53V22.52ZM2.75 5.54C1.23 5.54 0 4.3 0 2.77C0 1.24 1.23 0 2.75 0C4.27 0 5.5 1.24 5.5 2.77C5.5 4.3 4.27 5.54 2.75 5.54ZM22.52 22.52H17.89V14.64C17.89 12.48 17.07 11.27 15.36 11.27C13.5 11.27 12.53 12.53 12.53 14.64V22.52H8.07V7.51H12.53V9.53C12.53 9.53 13.87 7.05 17.06 7.05C20.25 7.05 22.52 8.99 22.52 13.02V22.53V22.52Z" fill="#DDD9D3"/>
</g>
<defs>
<clipPath id="clip0_75_168">
<rect width="22.51" height="22.52" fill="white"/>
</clipPath>
</defs>
</svg>
