<svg width="33" height="23" viewBox="0 0 33 23" fill="none" xmlns="http://www.w3.org/2000/svg">
<g clip-path="url(#clip0_75_172)">
<path d="M29.6599 0H3.34007C1.49832 0 0 1.56835 0 3.49649V19.5039C0 21.4317 1.49832 23.0004 3.34007 23.0004H29.6596C31.5013 23.0004 32.9996 21.432 32.9996 19.5039V3.49649C32.9996 1.56872 31.5013 0 29.6596 0H29.6599ZM3.34007 1.68495H29.6596C30.1829 1.68495 30.6517 1.93036 30.9689 2.3157L18.8687 10.8L18.8298 10.8289C17.1268 12.1822 14.8429 10.7912 14.8174 10.7752L1.79461 2.68659C2.07931 2.0936 2.66442 1.68495 3.34044 1.68495H3.34007ZM29.6596 21.3151H3.34007C2.38571 21.3151 1.60943 20.5026 1.60943 19.5035V4.53108L13.9914 12.2214C14.0771 12.2755 15.4343 13.1139 17.0846 13.1139C17.9506 13.1139 18.8975 12.8829 19.7834 12.1866L31.3898 4.04839V19.5035C31.3898 20.5022 30.6135 21.3151 29.6592 21.3151H29.6596Z" fill="#DDD9D3"/>
</g>
<defs>
<clipPath id="clip0_75_172">
<rect width="33" height="23" fill="white"/>
</clipPath>
</defs>
</svg>
