<?xml version="1.0" encoding="utf-8"?>
<!-- Generator: Adobe Illustrator 27.1.1, SVG Export Plug-In . SVG Version: 6.00 Build 0)  -->
<svg version="1.1" id="Layer_1" xmlns="http://www.w3.org/2000/svg" xmlns:xlink="http://www.w3.org/1999/xlink" x="0px" y="0px"
	 viewBox="0 0 456.3 592.5" style="enable-background:new 0 0 456.3 592.5;" xml:space="preserve">
<style type="text/css">
	.st0{fill:#FFFFFF;}
</style>
<path class="st0" d="M349,166.6c-38.5-54.9-143.2-134.6-213.4-88.9c-15,11.8-13.8,37.6-18.7,55.3c-1.6,9-1.3,9-9.7,10.5
	c-11.6,1.9-7.4,1.2-19.1,2.9C99.3,90,98.3,25.5,162.6,8.5c94.4-17.7,193.1,79.2,250.4,145.4c12.6,15.8,24.8,31.3,36.1,48.3
	c1.3,1.9,1,3.3-0.4,5c-12,14.6-25.6,30.7-37.6,45.3c-2.7,3.2-4.3,3.3-6.8,0c-27-27.2-96.1-31.7-136.9-35.1
	c-55.4-4.7-118.8-4.7-168.7,23.6c-76.9,38.7-81.4,141.2-28.5,205.8c85.3,91.3,227.6,34.1,305.2-41.4
	c-57.8-41.2-139.2-75.3-203.7-28.8c-15.7,13.1-21.1,49.5-23.2,68.8c-0.6,6.1-0.5,6-6.1,7.2c-12.6,2.7-8,1.2-20.6,3.9
	c2.4-21.5,6.8-43.3,9.2-64.7c1.7-14.7,3.8-29.2,11.6-42.1c41.6-56.2,114.4-48.9,171.3-33.2c49.5,14.8,85.8,34.3,130.3,61.2
	c1.8,1,2.7,2.2,2.4,4.5c-2.1,21-4.1,42-6,62.9c-0.3,3.5-2,4.8-5.1,4.7c-11.7-0.4-22,3.7-31.5,10.8c-26.3,19.7-52.9,39-81.1,55.6
	c-150.4,99.1-333,55-315-162c23.9-182.5,191.6-226.3,340.8-186.7C348.7,167.2,348.9,166.9,349,166.6z"/>
</svg>
