<?xml version="1.0" encoding="utf-8"?>
<!-- Generator: Adobe Illustrator 27.1.1, SVG Export Plug-In . SVG Version: 6.00 Build 0)  -->
<svg version="1.1" id="Layer_1" xmlns="http://www.w3.org/2000/svg" xmlns:xlink="http://www.w3.org/1999/xlink" x="0px" y="0px"
	 viewBox="0 0 456.3 592.5" style="enable-background:new 0 0 456.3 592.5;" xml:space="preserve">
<style type="text/css">
	.st0{fill:#FFFFFF;}
</style>
<path class="st0" d="M380.9,237.5c7.6,3.4,14.6,7.9,20.8,13.5l0,0c1.7,1.6,4.4,1.4,5.9-0.3c12-13.4,29.8-31.6,41.9-45.1
	c1.5-1.7,1.8-3.1,0.6-5.1c-10.7-18-32.4-48.9-45.2-65.2C346.7,67.1,275.8-6.3,178.9,11.1c-66,17-64,77.4-75.9,135.2
	c12-1.6,7.7-0.9,19.6-2.8c8.7-1.4,8.3-1.5,10.1-10.7c5.1-18.2,4.1-44.5,19.6-56.6c72.3-46.3,175.6,40,214.7,96.5
	c-0.3,0.4-0.3,0.4-0.6,0.8C213.7,131.9,32.8,173.5,7,360.3c-20.1,222.3,160.5,275.4,315.3,174.9c29.1-16.8,56.4-36.4,83.6-56.4
	c9.9-7.2,20.4-11.3,32.4-10.8c3.2,0.1,4.9-1.1,5.2-4.7c2.1-21.5,4.3-43,6.6-64.5c0.2-2.4-0.7-3.6-2.5-4.6
	c-45.5-27.9-81.3-49.3-131.9-64.8c-53.1-15.1-120.9-22.2-165,20.3c-10.2,9.8-17.5,22.2-20.8,35.9c-1.6,6.8-2.5,13.8-3.4,20.8
	c-2.7,21.8-7.3,44.2-10,66.2c13-2.8,8.3-1.2,21.2-3.9c5.8-1.2,5.7-1.1,6.4-7.3c2.4-19.7,8.1-57,24.3-70.3
	c66.4-47.2,149.6-11.7,208.5,31c-80.1,76.8-233,135.4-314.2,36.4c-57.3-69.9-32-166.7,45.8-209.6C108.6,248.8,222.1,189,380.9,237.5
	z"/>
</svg>
