<?xml version="1.0" encoding="utf-8"?>
<!-- Generator: Adobe Illustrator 27.1.1, SVG Export Plug-In . SVG Version: 6.00 Build 0)  -->
<svg version="1.1" id="Layer_1" xmlns="http://www.w3.org/2000/svg" xmlns:xlink="http://www.w3.org/1999/xlink" x="0px" y="0px"
	 viewBox="0 0 456.3 592.5" style="enable-background:new 0 0 456.3 592.5;" xml:space="preserve">
<style type="text/css">
	.st0{fill:#FFFFFF;}
</style>
<path class="st0" d="M119.4,142.4L132.2,53c76.2-141.6,243.2,33.3,324.1,130.5l-35.6,47.2l-13.9-11.8
	c-107.3-16.6-182.6-8-287.3,18.8c-26.4,6.7-53.9,20.2-65.7,32.4c-31.6,29.8-26.3,104.2-14.2,146.1
	c61.6,160.4,244.8,118.6,345.7,33.4c-74.3-52-180-67.9-216.5-15.3l-8.5,59.8c0,0-17.2-2.9-38.2-14.3l11.8-83.3
	c55.5-80,221.7-25.3,321.2,30.2l-6.5,63l-17.5-4.8C-56.9,832.4-102,232.5,152.7,171.6c76.6-18.3,143.3-18.9,208.6-18.8
	C309.7,81,211.7,25.9,167.5,80.8l-6.6,52.7C160.9,133.5,135,138.1,119.4,142.4z"/>
</svg>
