<?xml version="1.0" encoding="utf-8"?>
<!-- Generator: Adobe Illustrator 27.1.1, SVG Export Plug-In . SVG Version: 6.00 Build 0)  -->
<svg version="1.1" id="Layer_1" xmlns="http://www.w3.org/2000/svg" xmlns:xlink="http://www.w3.org/1999/xlink" x="0px" y="0px"
	 viewBox="0 0 456.3 592.5" style="enable-background:new 0 0 456.3 592.5;" xml:space="preserve">
<style type="text/css">
	.st0{fill:#FFFFFF;}
</style>
<path class="st0" d="M404.3,263.2c-6-5.4-12.8-9.8-20.2-13c-42-18-86.5-26.6-122-29.6c-55.1-4.7-116.3,2.4-165.9,30.5
	c-76.4,38.5-80.9,140.3-28.3,204.6c84.8,90.7,226.2,33.9,303.3-41.1c-57.4-40.9-138.4-74.8-202.4-28.6c-15.6,13-20.9,49.2-23.1,68.4
	c-0.6,6.1-0.5,5.9-6.1,7.2c-12.5,2.7-8,1.1-20.5,3.9c2.4-21.4,6.7-43.1,9.2-64.3c1.7-14.6,3.8-29,11.5-41.9
	c41.3-55.9,114.9-49.7,171.4-34.1c49.2,14.7,84.1,35.1,128.3,61.9c1.8,1,2.6,2.2,2.4,4.5c-2,20.8-4,41.7-5.9,62.6
	c-0.3,3.5-1.9,4.7-5,4.6c-11.7-0.4-21.8,3.6-31.3,10.7c-26.2,19.5-52.6,38.8-80.6,55.2c-149.4,98.5-331,54.6-313-161
	c23.8-181.3,191.9-228.7,340.2-189.4c0.3-0.4,0.3-0.4,0.6-0.8C308.4,118.9,203.8,41.5,134,86.9c-14.9,11.8-13.7,37.3-18.6,55
	c-1.6,8.9-1.3,9-9.7,10.4c-11.5,1.9-7.3,1.2-19,2.8C97.9,99.1,96.9,36.9,160.8,20c93.8-17.6,193.3,76.5,250.2,142.3
	c12.5,15.7,29.4,34.3,39.9,51.6c1.2,1.9,0.9,3.3-0.6,5c-11.6,13-28.6,30.8-40.2,43.8C408.6,264.4,406.1,264.6,404.3,263.2
	L404.3,263.2z"/>
</svg>
