<?xml version="1.0" encoding="utf-8"?>
<!-- Generator: Adobe Illustrator 27.1.1, SVG Export Plug-In . SVG Version: 6.00 Build 0)  -->
<svg version="1.1" id="Layer_1" xmlns="http://www.w3.org/2000/svg" xmlns:xlink="http://www.w3.org/1999/xlink" x="0px" y="0px"
	 viewBox="0 0 456.3 592.5" style="enable-background:new 0 0 456.3 592.5;" xml:space="preserve">
<style type="text/css">
	.st0{fill:#FFFFFF;}
</style>
<path class="st0" d="M320.2,195.2c-29.4-41.8-109.1-102.5-162.6-67.7c-11.4,9-10.5,28.6-14.3,42.2c-1.2,6.8-1,6.9-7.4,8
	c-8.8,1.5-5.6,0.9-14.5,2.2c8.5-43,7.8-92.1,56.7-105.1c71.9-13.5,147.1,60.3,190.7,110.8c9.6,12,18.9,23.8,27.5,36.8
	c1,1.5,0.8,2.5-0.3,3.8c-9.2,11.1-19.5,23.4-28.7,34.5c-2,2.5-3.3,2.5-5.2,0c-20.6-20.7-73.2-24.1-104.3-26.8
	c-42.2-3.6-90.5-3.6-128.5,18c-58.5,29.5-62,107.5-21.7,156.8c65,69.6,173.4,26,232.5-31.5c-44-31.4-106.1-57.3-155.1-21.9
	c-11.9,10-16,37.7-17.7,52.4c-0.5,4.7-0.4,4.5-4.7,5.5c-9.6,2.1-6.1,0.9-15.7,3c1.8-16.4,5.2-33,7-49.2c1.3-11.2,2.9-22.2,8.8-32.1
	c31.7-42.8,87.2-37.3,130.5-25.3c37.7,11.2,65.4,26.1,99.3,46.6c1.4,0.8,2,1.7,1.9,3.4c-1.6,16-3.1,32-4.6,47.9
	c-0.2,2.7-1.5,3.6-3.9,3.5c-8.9-0.3-16.7,2.8-24,8.2c-20.1,15-40.3,29.7-61.8,42.3C185.6,537,46.5,503.4,60.2,338.1
	c18.2-139,145.9-172.4,259.6-142.2C320,195.6,320.1,195.4,320.2,195.2z"/>
</svg>
