<?xml version="1.0" encoding="utf-8"?>
<!-- Generator: Adobe Illustrator 27.1.1, SVG Export Plug-In . SVG Version: 6.00 Build 0)  -->
<svg version="1.1" id="Layer_1" xmlns="http://www.w3.org/2000/svg" xmlns:xlink="http://www.w3.org/1999/xlink" x="0px" y="0px"
	 viewBox="0 0 456.3 592.5" style="enable-background:new 0 0 456.3 592.5;" xml:space="preserve">
<style type="text/css">
	.st0{fill:#FFFFFF;}
</style>
<path class="st0" d="M451.1,217c1.5-1.6,1.8-3,0.6-5l-23.1-29.9c-12.2-15.8-25.2-31-38.8-45.6C336.2,79.8,268.2,17,181.5,16.4
	c-22.6,0-38.3,5.6-48,10.9c-4.3,2.5-8.7,5.5-12.8,9.3c-8.5,7.6-15,23.1-19.7,39c-6.3,20.6-12.2,54.5-15.6,75.3
	c-0.2,1.2,0.9,2.3,2.1,2.1l19.1-3.1c1.8-0.3,3.3-0.9,4.3-1.8c1-0.6,1.7-3,2.1-4.6c0.5-2.7,1.1-6.6,2.2-12.5
	c3.4-17.6,11.2-42.5,20.5-48.3c20.7-13,50.3-13.7,71.1-9.2c55.3,12.3,116.7,60.6,139.6,98.7c-504.7-124.9-418.7,676.5,43,304.7
	c16.2-11.5,27.5-16.3,34-18.3c2.6-0.4,5.4-0.6,8.1-0.5c3.1,0.1,4.8-1.1,5.1-4.6c1.8-20,3.7-40,5.7-60c0.2-1.8-0.6-3.5-2-4.6
	c-60.9-47-156.7-87.1-235.2-72.5c-24.6,5.3-44.7,15.8-62.1,38.1c-1.2,1.6-2.3,3.2-3.2,5c-6.5,12.2-9.9,26.4-12.6,40.8
	c-3.7,20.3-6.6,41.4-9,62.1c-0.1,1.2,1,2.3,2.2,2l20.8-4.1c3-0.8,3-1.6,3.5-6.6c0.8-7.3,2.1-16.9,4.2-26.9
	c4.9-35,31.9-55.7,62.1-61.3c21.2-4.7,43.2-3.3,64.2,1.7c34.5,8.2,68.2,26.5,96.2,46.5C294,489.1,151.8,546.3,66.6,455.1
	c-52.8-64.6-48.3-167,28.4-205.7c92.5-47.6,191.3-38.8,289.4-0.9c7.4,3.2,14.3,7.6,20.3,13.1c1.8,1.4,4.4,1.2,5.9-0.5L451.1,217z"/>
</svg>
