<?xml version="1.0" encoding="utf-8"?>
<!-- Generator: Adobe Illustrator 27.1.1, SVG Export Plug-In . SVG Version: 6.00 Build 0)  -->
<svg version="1.1" id="Layer_1" xmlns="http://www.w3.org/2000/svg" xmlns:xlink="http://www.w3.org/1999/xlink" x="0px" y="0px"
	 viewBox="0 0 456.3 592.5" style="enable-background:new 0 0 456.3 592.5;" xml:space="preserve">
<style type="text/css">
	.st0{fill:#FFFFFF;}
</style>
<path class="st0" d="M350.4,175.4C306.4,126.1,207.2,38.8,140,88.9c-14.2,12.7-10.7,37.3-14,54.8c-0.8,8.8-0.5,8.8-8.9,11
	c-11.6,2.9-22.8,6.1-34.5,8.7c6.3-55.2,0.9-127.4,64.6-149.4c94.2-25.4,202.2,88.6,266.3,147.1c14.2,14.1,26,30.5,39,45.9
	c1.5,1.7,1.3,3.1,0,4.8c-10.9,15.1-21.7,30.2-32.6,45.3c-2.4,3.3-4.1,3.5-6.9,0.6c-29.8-23.7-103.6-19.5-142.1-21.5
	c-56.7,0.4-114.2,5.1-165.1,32.3c-78.3,37.3-86.9,136.1-33,198.4c86.9,88,231.9,32.9,311-39.9c-58.9-39.7-145.8-77.7-211.4-32.9
	c-16,12.6-16.7,34.7-18.9,53.2c-0.7,5.9-0.5,5.7-6.3,6.9c-12.8,2.6-25,5.6-37.9,8.3c2.4-20.7,5-40.4,7.5-61
	c1.8-14.2,3.9-28.1,11.8-40.6c42.3-54.2,124-38.1,181.9-22.9c50.4,14.2,98,36.3,143.4,62.3c1.8,1,2.7,2.1,2.5,4.4
	c-2.1,20.2-4.1,40.4-6.1,60.7c-0.3,3.4-2,4.6-5.2,4.5c-12-0.4-22.4,3.5-32.1,10.4c-26.9,18.9-53.9,37.6-82.7,53.6
	C176.9,629.4-17.2,586.5,1.2,377.3C25.6,201.4,195,151.5,350,176.2C350.1,175.9,350.3,175.7,350.4,175.4z"/>
</svg>
