<?xml version="1.0" encoding="utf-8"?>
<!-- Generator: Adobe Illustrator 27.1.1, SVG Export Plug-In . SVG Version: 6.00 Build 0)  -->
<svg version="1.1" id="Layer_1" xmlns="http://www.w3.org/2000/svg" xmlns:xlink="http://www.w3.org/1999/xlink" x="0px" y="0px"
	 viewBox="0 0 456.3 592.5" style="enable-background:new 0 0 456.3 592.5;" xml:space="preserve">
<style type="text/css">
	.st0{fill:#FFFFFF;}
</style>
<path class="st0" d="M373.4,8.9"/>
<path class="st0" d="M450.3,215.3c1.5-1.6,1.8-3,0.6-4.9L428,180.8c-13-15.5-24.9-30-38.4-45.1C338.2,78.1,266.2,20,180.4,19.3
	c-22.4,0-37,4.6-46.6,9.8c-4.3,2.5-8.6,5.5-12.7,9.2c-8.4,7.5-14.8,22.8-19.5,38.6c-6.2,20.3-12.1,53.9-15.4,74.5
	c-0.2,1.2,0.9,2.3,2.1,2.1l18-2.1c1.7-0.3,3.2-0.9,4.3-1.8c1-0.6,1.7-2.9,2.1-4.6c0.5-2.6,1.1-6.5,2.2-12.4
	c3.4-17.4,10.8-41.2,20.3-47.8c19.8-13.9,49.8-13.5,70.3-9.1c54.7,12.2,115.4,60,138.1,97.6C-155.8,49.9-70.7,842.8,386.1,475
	c16.1-11.4,27.2-16.1,33.7-18.1c2.6-0.4,5.3-0.6,8.1-0.5c3.1,0.1,4.7-1.1,5-4.6c1.8-19.8,3.7-39.6,5.6-59.4c0.2-1.8-0.6-3.5-2-4.6
	c-60.3-46.5-154.3-89-232-74.6c-24.4,5.2-46,14.6-63.1,36.7c-1.2,1.6-2.3,3.2-3.2,4.9c-6.4,12.1-8.9,30-11.5,44.2
	c-3.7,20.1-6.6,41-8.9,61.4c-0.1,1.2,1,2.2,2.2,2l20.5-4c3-0.8,3-1.6,3.5-6.5c0.8-7.2,2.4-16.7,4.1-26.6
	c3.7-20.4,9.9-33.8,20.4-41.5c12.4-9.1,28.9-15.7,44.2-18.6c20.9-4.7,39.6-3.9,60.4,1.1c34.2,8.1,67.4,26.3,95.2,46
	c-76.7,74.6-217.4,131.2-301.7,40.9c-52.3-63.9-47.8-165.2,28.1-203.5c91.5-47.1,189.3-38.4,286.4-0.9c7.4,3.2,14.2,7.6,20.1,12.9
	c1.8,1.4,4.3,1.2,5.8-0.5L450.3,215.3z"/>
</svg>
