<?xml version="1.0" encoding="utf-8"?>
<!-- Generator: Adobe Illustrator 28.0.0, SVG Export Plug-In . SVG Version: 6.00 Build 0)  -->
<svg version="1.1" id="Layer_1" xmlns="http://www.w3.org/2000/svg" xmlns:xlink="http://www.w3.org/1999/xlink" x="0px" y="0px"
	 viewBox="0 0 32 32" style="enable-background:new 0 0 32 32;" xml:space="preserve">
<style type="text/css">
	.st0{fill:#DDD9D3;}
</style>
<g id="Phone">
	<path class="st0" d="M26,19.7c-0.5-0.5-1.2-0.8-1.8-0.8c-0.6,0-1.2,0.3-1.8,0.8c-0.8,0.8-1.6,1.6-2.5,2.5c-0.1,0.1-0.3,0.2-0.4,0.2
		c-0.1,0-0.2,0-0.3-0.1c-0.5-0.3-1.1-0.5-1.6-0.8c-2.4-1.5-4.4-3.4-6.1-5.6c-0.9-1.1-1.7-2.2-2.2-3.5c-0.1-0.3-0.1-0.4,0.1-0.6
		c0.8-0.8,1.6-1.6,2.4-2.4c1.1-1.1,1.1-2.5,0-3.6C11.3,5,10.6,4.4,10,3.8c-0.7-0.7-1.3-1.3-2-2C7.5,1.2,6.9,1,6.3,1
		C5.6,1,5,1.2,4.5,1.8C3.7,2.6,2.9,3.4,2,4.2C1.3,5,0.9,5.9,0.8,6.9c-0.1,1.7,0.3,3.3,0.9,4.9C2.9,15.1,4.7,18,7,20.7
		c3,3.6,6.7,6.5,10.9,8.5c1.9,0.9,3.9,1.6,6,1.8c0.1,0,0.3,0,0.4,0c1.3,0,2.5-0.4,3.4-1.5c0.7-0.8,1.5-1.5,2.2-2.3
		c1.1-1.1,1.1-2.5,0-3.6C28.6,22.4,27.3,21.1,26,19.7z M28.5,25.9c-0.2,0.2-0.5,0.5-0.7,0.7c-0.5,0.5-1.1,1-1.6,1.6
		c-0.5,0.6-1.1,0.8-1.9,0.8c-0.1,0-0.2,0-0.3,0c-1.6-0.1-3.2-0.6-5.3-1.6c-3.9-1.9-7.4-4.6-10.2-8c-2.3-2.7-3.9-5.4-5-8.3
		C2.9,9.5,2.7,8.3,2.8,7.1c0-0.6,0.2-1,0.6-1.4c0.5-0.5,1-1,1.5-1.5c0.3-0.3,0.6-0.6,1-1C6.1,3,6.2,3,6.3,3c0,0,0.2,0,0.4,0.2
		c0.4,0.4,0.9,0.9,1.3,1.3l0.7,0.7c0.3,0.3,0.7,0.7,1,1c0.3,0.3,0.6,0.6,0.9,1c0.4,0.4,0.3,0.4,0,0.8l-0.3,0.3
		c-0.7,0.7-1.4,1.4-2.1,2.1c-0.8,0.8-1,1.8-0.6,2.8c0.6,1.3,1.4,2.6,2.5,4c2.1,2.6,4.3,4.5,6.6,6c0.4,0.2,0.8,0.4,1.1,0.6
		c0.2,0.1,0.4,0.2,0.5,0.3c0.4,0.2,0.8,0.3,1.3,0.3c0.5,0,1.2-0.1,1.8-0.8c0.8-0.8,1.6-1.6,2.4-2.4c0.2-0.2,0.3-0.2,0.3-0.2
		c0,0,0.2,0,0.3,0.2c1.3,1.3,2.6,2.6,3.9,3.9C28.8,25.4,28.8,25.5,28.5,25.9z"/>
</g>
</svg>
