<?xml version="1.0" encoding="utf-8"?>
<!-- Generator: Adobe Illustrator 28.0.0, SVG Export Plug-In . SVG Version: 6.00 Build 0)  -->
<svg version="1.1" id="Layer_1" xmlns="http://www.w3.org/2000/svg" xmlns:xlink="http://www.w3.org/1999/xlink" x="0px" y="0px"
	 viewBox="0 0 23 16.5" style="enable-background:new 0 0 23 16.5;" xml:space="preserve">
<style type="text/css">
	.st0{fill:#DDD9D3;}
</style>
<path class="st0" d="M4.2,16.5c0-0.4,0-0.9,0-1.3c5.5,0,10.9,0,16.4,0c0,0.4,0,0.9,0,1.3C15.2,16.5,9.7,16.5,4.2,16.5z"/>
<g>
	<path class="st0" d="M3.9,9.3c0-2.8,2-4.3,4.2-4.3c2.1,0,3.7,1.2,3.9,3h-1.9c-0.1-0.9-0.9-1.5-2-1.5c-1.4,0-2.4,0.9-2.4,2.7
		s1,2.7,2.4,2.7c1.1,0,1.9-0.6,2.1-1.5h1.8c-0.2,1.8-1.7,3-3.9,3C5.8,13.6,3.9,12.2,3.9,9.3z"/>
	<path class="st0" d="M12.1,5.1h1.8l2.1,6.1L18,5.1h1.8l-3,8.4h-1.7L12.1,5.1z"/>
</g>
</svg>
