<?xml version="1.0" encoding="utf-8"?>
<!-- Generator: Adobe Illustrator 28.0.0, SVG Export Plug-In . SVG Version: 6.00 Build 0)  -->
<svg version="1.1" id="Layer_1" xmlns="http://www.w3.org/2000/svg" xmlns:xlink="http://www.w3.org/1999/xlink" x="0px" y="0px"
	 viewBox="0 0 23 16.5" style="enable-background:new 0 0 23 16.5;" xml:space="preserve">
<style type="text/css">
	.st0{fill:#DDD9D3;}
</style>
<path class="st0" d="M0,16.5c0-0.6,0-1.2,0-1.8c7.7,0,15.3,0,23,0c0,0.6,0,1.2,0,1.8C15.4,16.5,7.7,16.5,0,16.5z"/>
<g>
	<path class="st0" d="M0,6.7c0-3.9,2.7-5.9,5.8-5.9c2.9,0,5,1.6,5.3,4.1H8.6c-0.2-1.2-1.3-2-2.7-2C4,2.9,2.5,4.2,2.5,6.7
		s1.4,3.8,3.3,3.8c1.5,0,2.6-0.8,2.8-2h2.5c-0.2,2.5-2.3,4.1-5.3,4.1C2.7,12.6,0,10.6,0,6.7z"/>
	<path class="st0" d="M11.3,0.9h2.5l2.8,8.4l2.9-8.4H22l-4.1,11.5h-2.4L11.3,0.9z"/>
</g>
</svg>
