<?xml version="1.0" encoding="utf-8"?>
<!-- Generator: Adobe Illustrator 28.0.0, SVG Export Plug-In . SVG Version: 6.00 Build 0)  -->
<svg version="1.1" id="Layer_1" xmlns="http://www.w3.org/2000/svg" xmlns:xlink="http://www.w3.org/1999/xlink" x="0px" y="0px"
	 viewBox="0 0 23 16.5" style="enable-background:new 0 0 23 16.5;" xml:space="preserve">
<style type="text/css">
	.st0{fill:#DDD9D3;}
</style>
<g id="Mail_1_">
	<path class="st0" d="M20.1,0H2.9C1.3,0,0,1.3,0,2.9v10.8c0,1.6,1.3,2.9,2.9,2.9h17.2c1.6,0,2.9-1.3,2.9-2.9V2.9
		C23,1.3,21.7,0,20.1,0z M21.6,13.7c0,0.8-0.6,1.4-1.4,1.4H2.9c-0.8,0-1.4-0.6-1.4-1.4V2.9c0-0.8,0.6-1.4,1.4-1.4h17.2
		c0.8,0,1.4,0.6,1.4,1.4V13.7z"/>
	<path class="st0" d="M19,3.7l-7.5,6.1L4,3.7C3.7,3.5,3.3,3.5,3,3.8c-0.2,0.4-0.2,0.8,0.1,1l7.9,6.5c0.1,0.1,0.3,0.1,0.4,0.1
		s0.3-0.1,0.4-0.1l7.9-6.5c0.3-0.2,0.4-0.7,0.1-1C19.7,3.5,19.3,3.5,19,3.7z"/>
</g>
</svg>
