<svg width="24" height="24" viewBox="0 0 24 24" fill="none" xmlns="http://www.w3.org/2000/svg">
<g clip-path="url(#clip0_75_164)">
<path d="M17.8902 6.84004C18.6634 6.84004 19.2902 6.21324 19.2902 5.44004C19.2902 4.66684 18.6634 4.04004 17.8902 4.04004C17.117 4.04004 16.4902 4.66684 16.4902 5.44004C16.4902 6.21324 17.117 6.84004 17.8902 6.84004Z" fill="#DDD9D3"/>
<path d="M11.6599 5.67004C8.34992 5.67004 5.66992 8.35004 5.66992 11.66C5.66992 14.97 8.34992 17.65 11.6599 17.65C14.9699 17.65 17.6499 14.97 17.6499 11.66C17.6499 8.35004 14.9699 5.67004 11.6599 5.67004ZM11.6599 15.55C9.50992 15.55 7.76992 13.81 7.76992 11.66C7.76992 9.51004 9.50992 7.77004 11.6599 7.77004C13.8099 7.77004 15.5499 9.51004 15.5499 11.66C15.5499 13.81 13.8099 15.55 11.6599 15.55Z" fill="#DDD9D3"/>
<path d="M23.2505 6.84999C23.1905 5.60999 23.0005 4.75999 22.7105 4.01999C22.4105 3.24999 22.0105 2.59999 21.3605 1.94999C20.7105 1.29999 20.0605 0.89999 19.2905 0.59999C18.5505 0.30999 17.7005 0.10999 16.4605 0.0599902C15.2205 -9.76399e-06 14.8205 -0.0100098 11.6505 -0.0100098C8.48047 -0.0100098 8.09047 -9.76399e-06 6.84047 0.0599902C5.60047 0.11999 4.75047 0.30999 4.01047 0.59999C3.24047 0.89999 2.59047 1.29999 1.94047 1.94999C1.29047 2.59999 0.890469 3.24999 0.590469 4.01999C0.300469 4.75999 0.100469 5.60999 0.0504688 6.84999C-0.00953125 8.08999 -0.0195312 8.48999 -0.0195312 11.66C-0.0195312 14.83 -0.00953125 15.22 0.0504688 16.47C0.110469 17.71 0.300469 18.56 0.590469 19.3C0.890469 20.07 1.29047 20.72 1.94047 21.37C2.59047 22.02 3.24047 22.42 4.01047 22.72C4.75047 23.01 5.60047 23.21 6.84047 23.26C8.08047 23.32 8.48047 23.33 11.6505 23.33C14.8205 23.33 15.2105 23.32 16.4605 23.26C17.7005 23.2 18.5505 23.01 19.2905 22.72C20.0605 22.42 20.7105 22.02 21.3605 21.37C22.0105 20.72 22.4105 20.07 22.7105 19.3C23.0005 18.56 23.2005 17.71 23.2505 16.47C23.3105 15.23 23.3205 14.83 23.3205 11.66C23.3205 8.48999 23.3105 8.09999 23.2505 6.84999ZM21.1505 16.37C21.1005 17.51 20.9105 18.12 20.7505 18.54C20.5405 19.08 20.2905 19.47 19.8805 19.88C19.4705 20.29 19.0805 20.54 18.5405 20.75C18.1305 20.91 17.5105 21.1 16.3705 21.15C15.1405 21.21 14.7705 21.22 11.6605 21.22C8.55047 21.22 8.18047 21.21 6.95047 21.15C5.81047 21.1 5.20047 20.91 4.78047 20.75C4.24047 20.54 3.85047 20.29 3.44047 19.88C3.03047 19.47 2.78047 19.08 2.57047 18.54C2.41047 18.13 2.22047 17.51 2.17047 16.37C2.11047 15.14 2.10047 14.77 2.10047 11.66C2.10047 8.54999 2.11047 8.17999 2.17047 6.94999C2.22047 5.80999 2.41047 5.19999 2.57047 4.77999C2.78047 4.23999 3.03047 3.84999 3.44047 3.43999C3.85047 3.02999 4.24047 2.77999 4.78047 2.56999C5.19047 2.40999 5.81047 2.21999 6.95047 2.16999C8.18047 2.10999 8.55047 2.09999 11.6605 2.09999C14.7705 2.09999 15.1405 2.10999 16.3705 2.16999C17.5105 2.21999 18.1205 2.40999 18.5405 2.56999C19.0805 2.77999 19.4705 3.02999 19.8805 3.43999C20.2905 3.84999 20.5405 4.23999 20.7505 4.77999C20.9105 5.18999 21.1005 5.80999 21.1505 6.94999C21.2105 8.17999 21.2205 8.54999 21.2205 11.66C21.2205 14.77 21.2105 15.14 21.1505 16.37Z" fill="#DDD9D3"/>
</g>
<defs>
<clipPath id="clip0_75_164">
<rect width="23.32" height="23.32" fill="white"/>
</clipPath>
</defs>
</svg>
