<?xml version="1.0" encoding="utf-8"?>
<!-- Generator: Adobe Illustrator 28.0.0, SVG Export Plug-In . SVG Version: 6.00 Build 0)  -->
<svg version="1.1" id="Layer_1" xmlns="http://www.w3.org/2000/svg" xmlns:xlink="http://www.w3.org/1999/xlink" x="0px" y="0px"
	 viewBox="0 0 32 32" style="enable-background:new 0 0 32 32;" xml:space="preserve">
<style type="text/css">
	.st0{fill:#DDD9D3;}
</style>
<g id="Mail_1_">
	<path class="st0" d="M28,4.6H4c-2.2,0-4,1.8-4,4v15c0,2.2,1.8,4,4,4h24c2.2,0,4-1.8,4-4v-15C32,6.4,30.2,4.6,28,4.6z M30,23.6
		c0,1.1-0.9,2-2,2H4c-1.1,0-2-0.9-2-2v-15c0-1.1,0.9-2,2-2h24c1.1,0,2,0.9,2,2V23.6z"/>
	<path class="st0" d="M26.4,9.8L16,18.3L5.6,9.8c-0.4-0.3-1-0.3-1.4,0.1c-0.3,0.5-0.3,1.1,0.2,1.4l11,9c0.2,0.2,0.4,0.2,0.6,0.2
		s0.4-0.1,0.6-0.2l11-9c0.4-0.3,0.5-1,0.1-1.4C27.4,9.5,26.8,9.5,26.4,9.8z"/>
</g>
</svg>
