<?xml version="1.0" encoding="utf-8"?>
<!-- Generator: Adobe Illustrator 28.0.0, SVG Export Plug-In . SVG Version: 6.00 Build 0)  -->
<svg version="1.1" id="Layer_1" xmlns="http://www.w3.org/2000/svg" xmlns:xlink="http://www.w3.org/1999/xlink" x="0px" y="0px"
	 viewBox="0 0 24 24" style="enable-background:new 0 0 24 24;" xml:space="preserve">
<style type="text/css">
	.st0{fill:#DDD9D3;}
</style>
<path class="st0" d="M23.8,2.8c-0.2-0.5-0.8-0.8-1.4-0.8c-0.5,0-0.9,0.2-1,0.2C21.3,2.2,6.9,7.6,1,10.1c-0.5,0.2-0.9,0.5-1,0.9
	c-0.2,0.6,0.2,1.2,0.6,1.4c1.5,0.6,4.5,1.5,5.5,1.8c0.3,1,1.4,4.7,1.9,6.3C8.2,20.8,8.6,21,9.1,21c0.1,0,0.1,0,0.1,0
	c0.1,0,0.3-0.1,0.4-0.2c0.1-0.1,0.1-0.2,0.1-0.3l0.3-4.4c0.6,0.4,1.4,1.1,2.3,1.8c1.8,1.4,4,3,5.2,3.9c0.4,0.3,0.9,0.5,1.2,0.5
	c0.9,0,1.4-0.8,1.6-1.4c1-3.9,2.5-11.4,3.4-15.8L24,4C24.1,3.4,24,3,23.8,2.8z M9,15l-0.3,3.9c-0.7-2.1-1.6-5.4-1.7-5.4c0,0,0,0,0,0
	l0,0l11.2-7.3c0,0,0.8-0.5,1.1-0.6c0.4-0.1,0.5,0.1,0.4,0.2c-0.3,0.4-1.6,1.5-1.6,1.5l-8.9,7.4l0,0C9.1,14.7,9,14.9,9,15z"/>
</svg>
